<svg xmlns="http://www.w3.org/2000/svg" xmlns:xlink="http://www.w3.org/1999/xlink" id="Calque_1" x="0px" y="0px" viewBox="0 0 314.7 113.3" style="enable-background:new 0 0 314.7 113.3;" xml:space="preserve">
<style type="text/css">
	.st0{fill:#575756;}
	.st1{fill:url(#SVGID_1_);}
	.st2{fill:url(#SVGID_2_);}
	.st3{fill:url(#SVGID_3_);}
	.st4{fill:#878787;}
</style>
<g>
	<g>
		<path class="st0" d="M154.8,21.5c0-6.8,4.1-9.2,8.7-9l21.9,1.1v4h-21.9c-3.6,0-3.6,2-3.6,3.9v13.8l22.7,0.7v4.1l-22.7,0.7v13.8    c0.1,3.7,2.3,3.6,4.3,3.6h21.2v4l-21.2,1.2c-4.6,0.3-9.4-0.9-9.4-8.7V21.5z"></path>
		<path class="st0" d="M163,64.5c-6.1,0-9.4-3.4-9.4-9.9V21.5c0-6.3,3.5-10.1,9.3-10.1c0.2,0,0.4,0,0.6,0l21.9,1.1    c0.6,0,1.1,0.5,1.1,1.1v4c0,0.6-0.5,1.1-1.1,1.1h-21.9c-2.5,0-2.5,0.9-2.5,2.8v12.8l21.6,0.7c0.6,0,1.1,0.5,1.1,1.1v4.1    c0,0.6-0.5,1.1-1.1,1.1L161,41.9v12.8c0,2.4,0.9,2.5,3,2.5h21.4c0.6,0,1.1,0.5,1.1,1.1v4c0,0.6-0.5,1.1-1.1,1.1l-21.2,1.2    C163.9,64.5,163.5,64.5,163,64.5z M163,13.6c-2.6,0-7.1,1-7.1,7.9v33.1c0,5.3,2.2,7.7,7.2,7.7c0.4,0,0.7,0,1.1,0l20.1-1.1v-1.8    H164c-1.8,0-5.1,0-5.2-4.7V40.8c0-0.6,0.5-1.1,1.1-1.1l21.6-0.7v-1.9l-21.6-0.7c-0.6,0-1.1-0.5-1.1-1.1V21.5c0-1.7,0-5,4.7-5h20.8    v-1.8l-20.8-1.1C163.3,13.6,163.1,13.6,163,13.6z"></path>
	</g>
	<g>
		<path class="st0" d="M203.4,44.7l-13.3-18.3h6.4l10,14.1l10.2-14.1h6.4l-13.4,18.5l12.9,18.2h-5.8l-10.1-14l-10.1,14h-6.4    L203.4,44.7z"></path>
		<path class="st0" d="M222.5,64.3h-5.8c-0.4,0-0.7-0.2-0.9-0.5L206.6,51l-9.2,12.7c-0.2,0.3-0.5,0.5-0.9,0.5h-6.4    c-0.4,0-0.8-0.2-1-0.6c-0.2-0.4-0.2-0.8,0.1-1.2L202,44.7L189.2,27c-0.2-0.3-0.3-0.8-0.1-1.2c0.2-0.4,0.6-0.6,1-0.6h6.4    c0.4,0,0.7,0.2,0.9,0.5l9.1,12.8l9.3-12.9c0.2-0.3,0.5-0.5,0.9-0.5h6.4c0.4,0,0.8,0.2,1,0.6c0.2,0.4,0.2,0.8-0.1,1.2L211,44.9    l12.4,17.6c0.2,0.3,0.3,0.8,0.1,1.2C223.3,64,222.9,64.3,222.5,64.3z M217.3,62h3.1l-11.6-16.5c-0.3-0.4-0.3-0.9,0-1.3l12.1-16.8    h-3.6l-9.9,13.7c-0.2,0.3-0.5,0.5-0.9,0.5c0,0,0,0,0,0c-0.4,0-0.7-0.2-0.9-0.5l-9.6-13.6h-3.6l12,16.6c0.3,0.4,0.3,0.9,0,1.3    l-12,16.7h3.6l9.8-13.5c0.2-0.3,0.5-0.5,0.9-0.5l0,0c0.4,0,0.7,0.2,0.9,0.5L217.3,62z"></path>
	</g>
	<g>
		<path class="st0" d="M236.8,26c3.6,0,10.9,0.9,15.8,1.8v3.7c0,0-9.6-0.4-15.8-0.4c-4.2,0-7,0.8-7,13.8c0,10.6,2,13.4,7,13.4    c6.4,0,16.3-0.8,16.3-0.8v3.9c-5.6,1.6-10.5,1.9-16.3,2c-6.8,0-12.1-2.6-12.1-18.8C224.7,28.7,229.8,26,236.8,26z"></path>
		<path class="st0" d="M236.8,64.6c-6.9,0-13.2-2.4-13.2-19.9c0-16.4,5.3-19.8,13.2-19.8c3.8,0,11.3,0.9,16,1.8    c0.5,0.1,0.9,0.6,0.9,1.1v3.7c0,0.3-0.1,0.6-0.3,0.8c-0.2,0.2-0.5,0.3-0.8,0.3c-0.1,0-9.7-0.4-15.7-0.4c-3.3,0-5.9,0-5.9,12.7    c0,11.4,2.4,12.3,5.9,12.3c6.3,0,16.1-0.8,16.2-0.8c0.3,0,0.6,0.1,0.8,0.3c0.2,0.2,0.4,0.5,0.4,0.8v3.9c0,0.5-0.3,0.9-0.8,1.1    C247.7,64.2,242.7,64.5,236.8,64.6C236.8,64.6,236.8,64.6,236.8,64.6z M236.8,27.1c-5.8,0-11,1.3-11,17.6c0,16.3,5.4,17.7,11,17.7    c5.5-0.1,10.1-0.4,15.2-1.7v-1.8c-2.8,0.2-10.1,0.7-15.2,0.7c-6.8,0-8.1-5.3-8.1-14.5c0-12.7,2.6-14.9,8.1-14.9    c4.9,0,11.9,0.3,14.7,0.4v-1.6C246.9,28,240.2,27.1,236.8,27.1z"></path>
	</g>
	<g>
		<path class="st0" d="M274.1,26c12.4,0,16.2,4.6,16.2,19.2c0,13.6-3.8,18.2-16.2,18.2c-12.4,0-16.2-5.1-16.2-18.2    C257.9,30.3,262.1,26,274.1,26z M274.1,58.4c7.5,0,11.1-1,11.1-13.1c0-13.1-3-14.1-11.1-14.1c-7.8,0-11.1,0.9-11.1,14.1    C263,57.5,267,58.4,274.1,58.4z"></path>
		<path class="st0" d="M274.1,64.6c-12.6,0-17.3-5.2-17.3-19.3c0-15.2,4.4-20.3,17.3-20.3c12.9,0,17.3,5.1,17.3,20.3    C291.4,59.7,287.1,64.6,274.1,64.6z M274.1,27.1c-11.7,0-15.1,4.1-15.1,18.1c0,12.9,3.7,17.1,15.1,17.1c11.6,0,15.1-4,15.1-17.1    C289.2,31.2,285.8,27.1,274.1,27.1z M274.1,59.5c-7.4,0-12.2-1-12.2-14.2c0-13.8,3.7-15.2,12.2-15.2c8.7,0,12.2,1.4,12.2,15.2    C286.3,57.5,282.7,59.5,274.1,59.5z M274.1,32.3c-6.8,0-10,0-10,13c0,11.5,3.2,12,10,12c6.9,0,10-0.5,10-12    C284.1,32.3,281.2,32.3,274.1,32.3z"></path>
	</g>
</g>
<radialGradient id="SVGID_1_" cx="104.3589" cy="-233.1593" r="30.6204" gradientTransform="matrix(1.3617 0 0 1.3617 -89.5847 378.4362)" gradientUnits="userSpaceOnUse">
	<stop offset="0" style="stop-color:#878787"></stop>
	<stop offset="1" style="stop-color:#575756"></stop>
</radialGradient>
<path class="st1" d="M88.4,32.9c1.7,0,3.4,0.2,5,0.5V18.7c-1.6-0.2-3.3-0.3-5-0.3c-15.1,0-28.3,7.9-35.9,19.7  C45,26.3,31.7,18.4,16.6,18.4c-1.7,0-3.3,0.1-5,0.3v14.6c1.6-0.3,3.3-0.5,5-0.5c15.5,0,28.1,12.6,28.1,28.1  C44.7,76.4,32.1,89,16.6,89c-1.7,0-3.4-0.2-5-0.5v14.6c1.6,0.2,3.3,0.3,5,0.3c15.1,0,28.3-7.9,35.9-19.7  c7.5,11.8,20.8,19.7,35.9,19.7c1.7,0,3.3-0.1,5-0.3V88.6c-1.6,0.3-3.3,0.5-5,0.5c-15.5,0-28.1-12.6-28.1-28.1  C60.3,45.4,72.9,32.9,88.4,32.9z"></path>
<linearGradient id="SVGID_2_" gradientUnits="userSpaceOnUse" x1="97.4717" y1="60.9434" x2="130.9097" y2="60.9434">
	<stop offset="0" style="stop-color:#1BA9CC"></stop>
	<stop offset="0.5" style="stop-color:#008FC3"></stop>
	<stop offset="1" style="stop-color:#006284"></stop>
</linearGradient>
<path class="st2" d="M97.5,19.4v15c11,3.8,19,14.2,19,26.6c0,12.3-7.9,22.8-19,26.6v15c19.1-4.2,33.4-21.2,33.4-41.5  C130.9,40.6,116.6,23.6,97.5,19.4z"></path>
<g>
	<linearGradient id="SVGID_3_" gradientUnits="userSpaceOnUse" x1="11.6655" y1="61.0264" x2="32.915" y2="61.0264">
		<stop offset="0" style="stop-color:#DA5914"></stop>
		<stop offset="1" style="stop-color:#F59A00"></stop>
	</linearGradient>
	<path class="st3" d="M31,53.9H11.7v14.2l19.3,0c0.9-2.2,1.5-4.6,1.5-7.2C32.4,58.5,31.9,56.1,31,53.9z"></path>
</g>
<g>
	<path class="st4" d="M161.9,79.6h2.4l8.2,23.3h-2.8l-2-6.5h-9.3l-2.1,6.5h-2.9L161.9,79.6z M166.8,94.1l-3.8-10.8l-3.8,10.8H166.8z   "></path>
	<path class="st4" d="M174,78.9c1.9-0.2,3.6-0.4,5.6-0.4c2.7,0,3.8,2,3.8,3.9c0,3.6-5.3,7.6-6.6,8.5h6.6v1.4h-9.3v-1.3   c2-1.4,7.9-5.6,7.9-8.6c0-1.4-0.7-2.5-2.4-2.5H174V78.9z"></path>
	<path class="st4" d="M194.3,79.6h2.4l8.2,23.3H202l-2-6.5h-9.3l-2.1,6.5h-2.9L194.3,79.6z M199.2,94.1l-3.8-10.8l-3.8,10.8H199.2z"></path>
	<path class="st4" d="M215.5,79.6h9.6c2.5,0,5.6,1,5.6,6.7c0,6.6-3.2,7.1-5.6,7.1c-1.3,0-7.1-0.5-7.2-0.6v10.1h-2.4V79.6z    M225.1,91.1c1.7,0,3.2-0.5,3.2-4.7c-0.1-4.2-2.1-4.4-3.2-4.4h-7.2v9.1H225.1z"></path>
	<path class="st4" d="M241.1,85.9c5.7,0,7.4,2.1,7.4,8.8c0,6.3-1.7,8.4-7.4,8.4c-5.7,0-7.4-2.3-7.4-8.4   C233.7,87.8,235.6,85.9,241.1,85.9z M241.1,100.7c3.4,0,5.1-0.4,5.1-6c0-6-1.4-6.5-5.1-6.5c-3.6,0-5.1,0.4-5.1,6.5   C236,100.3,237.8,100.7,241.1,100.7z"></path>
	<path class="st4" d="M252,78h2.4v18.9c0,2.8,0.7,3.4,1.8,3.7c0,0,2.6,0.7,2.8,0.7v1.7h-2.8c-2.4,0-4.2-1.5-4.2-6V78z"></path>
	<path class="st4" d="M260,90.1c0-2.6,1.1-4.2,4.4-4.2c1.7,0,6.6,0.4,8.3,0.5v1.8h-8.3c-2,0-2,0.8-2,1.9v1.5c0,1.7,0.9,1.8,2,1.8h5   c2.8,0,4.1,1.7,4.1,4.1V99c0,3.5-2.1,4.1-4.1,4.1c-1.6,0-7.5-0.5-8.7-0.6v-1.7h8.7c0,0,1.8,0.2,1.8-1.7v-1.6c0-1.1-0.4-1.7-1.8-1.7   h-5c-3,0-4.4-0.9-4.4-4.2V90.1z"></path>
	<path class="st4" d="M276.7,78h2.4v14h1.3l6.5-6h3.3l-7.5,7.2l7.5,9.7h-2.9l-6.8-8.5h-1.3v8.5h-2.4V78z"></path>
	<path class="st4" d="M292,97c0-2.5,1.6-4.2,4.2-4.2c0,0,7.1,0,7.1,0c0,0,0-2.1,0-2.1c0-1.9-1-2.6-2.6-2.6c-2.3,0-5.1,0.2-8.1,0.4   v-1.7c2.3-0.6,5.1-0.9,8.2-1c2.6,0,4.9,1.4,4.9,4.9v12.3h-1.7l-0.6-2c-0.1,0-4.2,2.2-7.1,2.2c-2.3,0-4.2-1.5-4.2-4.2V97z    M296.2,100.8c2.5,0,7.1-1.6,7.1-1.6v-4.5l-7.1,0.5c-1.4,0.1-1.9,1-1.9,2.1v1.6C294.3,100.3,295.1,100.8,296.2,100.8z"></path>
</g>
<g>
</g>
<g>
</g>
<g>
</g>
<g>
</g>
<g>
</g>
<g>
</g>
</svg>