<svg xmlns="http://www.w3.org/2000/svg" width="306" height="45" viewBox="0 0 306 45">
    <g fill="none" fill-rule="evenodd">
        <g fill-rule="nonzero">
            <g>
                <g>
                    <g>
                        <path fill="#1B9DD9" d="M13.86 20.94S7.26 11.4 10.5 6.36l2.7-4.2S14.28.24 16.14.24h11.4l-13.68 20.7z" transform="translate(-57 -59) translate(57 59)"/>
                        <path fill="#43BBC7" d="M12.18 21.96c-.06-.12-1.74-2.58-3.06-5.7-.84-2.1-1.32-3.96-1.44-5.64L.54 21.3c-.06.06-.12.18-.18.24-.18.3-.3.66-.3 1.02s.12.72.24 1.02c.06.12.12.18.18.24L12.9 42.54c.18.3.24.36.24.36 0 .06.06.12.18.24.36.54 1.38 1.62 2.76 1.62h11.46l-15.36-22.8z" transform="translate(-57 -59) translate(57 59)"/>
                        <g fill="#1B9DD9">
                            <path d="M.18.6L5.04.6 5.04 10.2 13.98.6 19.8.6 10.8 9.9 20.16 22.56 14.34 22.56 7.56 13.2 5.04 15.84 5.04 22.56.18 22.56zM21.54.6h10.02c2.76 0 4.92.72 6.42 2.22 1.26 1.26 1.86 2.94 1.86 5.04v.06c0 1.8-.42 3.24-1.32 4.32-.84 1.14-1.98 1.92-3.42 2.46l5.34 7.86H34.8l-4.68-7.02H26.34v7.02h-4.86V.6h.06zm9.72 10.68c1.2 0 2.1-.3 2.76-.84.66-.54.96-1.32.96-2.28V8.1c0-1.02-.36-1.86-1.02-2.34-.66-.54-1.62-.78-2.82-.78h-4.8v6.3h4.92zM42.66.6L59.22.6 59.22 4.92 47.46 4.92 47.46 9.36 57.84 9.36 57.84 13.68 47.46 13.68 47.46 18.3 59.4 18.3 59.4 22.62 42.72 22.62 42.72.6zM69.96 22.86c-1.68 0-3.3-.3-4.92-.84-1.62-.6-3.06-1.44-4.38-2.64l2.88-3.42c1.02.84 2.04 1.44 3.12 1.92s2.22.72 3.48.72c1.02 0 1.8-.18 2.34-.54.54-.36.84-.9.84-1.5v-.06c0-.3-.06-.6-.18-.84s-.36-.48-.66-.66c-.3-.18-.78-.42-1.38-.6-.6-.18-1.32-.42-2.28-.66-1.14-.3-2.1-.6-3-.9-.9-.36-1.68-.72-2.28-1.26-.6-.48-1.14-1.08-1.44-1.86-.36-.72-.54-1.62-.54-2.76V6.9c0-1.02.18-1.92.54-2.7.36-.78.9-1.5 1.56-2.1.66-.6 1.5-1.02 2.4-1.32.96-.3 1.98-.48 3.12-.48 1.62 0 3.12.24 4.44.72 1.32.48 2.58 1.2 3.72 2.1l-2.52 3.66c-.96-.66-1.92-1.2-2.88-1.56-.96-.36-1.86-.6-2.82-.6-.96 0-1.62.18-2.1.54-.48.36-.72.84-.72 1.38v.06c0 .36.06.66.18.9s.36.48.72.72c.36.18.84.42 1.44.6s1.38.42 2.34.66c1.14.3 2.1.6 3 .96.9.36 1.62.78 2.22 1.32.6.54 1.02 1.14 1.38 1.8.3.72.48 1.5.48 2.46v.06c0 1.08-.18 2.04-.6 2.88-.42.84-.96 1.56-1.68 2.16-.72.6-1.56 1.02-2.52 1.32-1.02.3-2.1.42-3.3.42zM85.32 5.04L78.66 5.04 78.66.6 96.84.6 96.84 5.04 90.18 5.04 90.18 22.56 85.32 22.56 85.32 5.04zM108.72 22.92c-1.68 0-3.24-.3-4.68-.9-1.44-.6-2.64-1.38-3.66-2.4s-1.86-2.22-2.4-3.6c-.6-1.38-.84-2.82-.84-4.38v-.06c0-1.56.3-3.06.9-4.38.6-1.38 1.38-2.58 2.46-3.6 1.02-1.02 2.28-1.86 3.72-2.46 1.44-.6 3-.9 4.68-.9 1.68 0 3.24.3 4.68.9 1.44.6 2.64 1.38 3.66 2.4s1.86 2.22 2.4 3.6c.6 1.38.84 2.82.84 4.38v.06c0 1.56-.3 3.06-.9 4.38-.6 1.38-1.38 2.58-2.46 3.6s-2.28 1.86-3.72 2.46c-1.44.6-3 .9-4.68.9zm.06-4.44c.96 0 1.86-.18 2.64-.54.84-.36 1.5-.84 2.1-1.5.6-.6 1.02-1.38 1.32-2.16.3-.84.48-1.74.48-2.64v-.06c0-.96-.18-1.86-.48-2.64-.3-.84-.78-1.56-1.38-2.22-.6-.6-1.32-1.14-2.1-1.5-.84-.36-1.68-.54-2.64-.54-.96 0-1.86.18-2.7.54-.78.36-1.5.84-2.1 1.5-.6.6-1.02 1.38-1.32 2.16-.3.84-.48 1.74-.48 2.64v.06c0 .96.18 1.86.48 2.64.3.84.78 1.56 1.38 2.22.6.6 1.32 1.14 2.1 1.5.84.36 1.74.54 2.7.54zM123.18.6L127.62.6 137.94 14.1 137.94.6 142.74.6 142.74 22.56 138.6 22.56 127.98 8.58 127.98 22.56 123.18 22.56z" transform="translate(-57 -59) translate(57 59) translate(27.6 10.2)"/>
                        </g>
                        <g fill="#43BBC7">
                            <path d="M11.94 22.92c-1.74 0-3.3-.3-4.68-.84s-2.64-1.32-3.66-2.34c-1.02-1.02-1.8-2.22-2.34-3.6-.54-1.38-.84-2.88-.84-4.5v-.06c0-1.56.3-3.06.84-4.38.6-1.38 1.38-2.58 2.4-3.6s2.22-1.86 3.66-2.46c1.44-.6 2.94-.9 4.62-.9.96 0 1.86.06 2.7.18.78.12 1.56.3 2.22.6.72.24 1.32.54 1.92.96.6.36 1.2.78 1.74 1.26L17.46 6.9c-.42-.36-.84-.66-1.26-.96-.42-.3-.84-.48-1.32-.72-.48-.18-.96-.36-1.44-.42-.54-.12-1.08-.18-1.74-.18-.9 0-1.68.18-2.46.54-.78.36-1.44.84-1.98 1.5-.6.6-1.02 1.32-1.32 2.16-.3.84-.48 1.74-.48 2.64v.06c0 1.02.18 1.92.48 2.76.3.84.78 1.56 1.38 2.22.6.6 1.32 1.14 2.1 1.44.78.36 1.68.54 2.7.54 1.8 0 3.3-.42 4.56-1.32v-3.18h-4.86v-4.2h9.54v9.54c-1.14.96-2.46 1.8-4.02 2.46-1.62.84-3.36 1.14-5.4 1.14zM24.42.6L29.28.6 29.28 18.18 40.2 18.18 40.2 22.56 24.42 22.56zM51.72 22.92c-1.68 0-3.24-.3-4.68-.9-1.44-.6-2.64-1.38-3.66-2.4s-1.86-2.22-2.4-3.6c-.6-1.38-.84-2.82-.84-4.38v-.06c0-1.56.3-3.06.9-4.38.6-1.38 1.38-2.58 2.46-3.6 1.02-1.02 2.28-1.86 3.72-2.46 1.44-.6 3-.9 4.68-.9 1.68 0 3.24.3 4.68.9 1.44.6 2.64 1.38 3.66 2.4s1.86 2.22 2.4 3.6c.6 1.38.84 2.82.84 4.38v.06c0 1.56-.3 3.06-.9 4.38-.6 1.38-1.38 2.58-2.46 3.6s-2.28 1.86-3.72 2.46c-1.44.6-3 .9-4.68.9zm.06-4.44c.96 0 1.86-.18 2.64-.54.84-.36 1.5-.84 2.1-1.5.6-.6 1.02-1.38 1.32-2.16.3-.84.48-1.74.48-2.64v-.06c0-.96-.18-1.86-.48-2.64-.3-.84-.78-1.56-1.38-2.22-.6-.6-1.32-1.14-2.1-1.5-.84-.36-1.68-.54-2.64-.54-.96 0-1.86.18-2.7.54-.78.36-1.5.84-2.1 1.5-.6.6-1.02 1.38-1.32 2.16-.3.84-.48 1.74-.48 2.64v.06c0 .96.18 1.86.48 2.64.3.84.78 1.56 1.38 2.22.6.6 1.32 1.14 2.1 1.5.84.36 1.74.54 2.7.54zM66.18.6h10.2c2.52 0 4.44.66 5.76 1.92 1.02 1.02 1.5 2.22 1.5 3.72v.06c0 .6-.06 1.2-.24 1.68s-.36.9-.6 1.32c-.24.36-.54.72-.9 1.02-.36.3-.72.54-1.08.78 1.26.48 2.28 1.14 3 1.98.72.84 1.08 1.98 1.08 3.42v.06c0 1.02-.18 1.86-.6 2.64-.36.78-.96 1.38-1.68 1.86-.72.48-1.56.9-2.58 1.14-1.02.24-2.16.36-3.36.36H66.24V.6h-.06zm9.18 8.88c1.08 0 1.92-.18 2.52-.54.6-.36.96-.96.96-1.8v-.06c0-.72-.3-1.32-.84-1.68-.54-.36-1.32-.6-2.34-.6h-4.8v4.62h4.5v.06zm1.26 8.82c1.08 0 1.92-.18 2.52-.6.6-.36.9-.96.9-1.8v-.06c0-.72-.3-1.32-.84-1.74-.54-.42-1.5-.66-2.76-.66h-5.58v4.86h5.76zM94.86.42h4.44l9.42 22.14h-5.04l-1.98-4.92h-9.3l-1.98 4.92H85.5L94.86.42zm5.04 12.96l-2.94-7.14-2.94 7.14h5.88zM110.58.6L115.44.6 115.44 18.18 126.42 18.18 126.42 22.56 110.64 22.56 110.64.6z" transform="translate(-57 -59) translate(57 59) translate(178.8 10.2)"/>
                        </g>
                    </g>
                </g>
            </g>
        </g>
    </g>
</svg>
