<?xml version="1.0" encoding="utf-8"?>
<!-- Generator: Adobe Illustrator 16.0.0, SVG Export Plug-In . SVG Version: 6.00 Build 0)  -->
<!DOCTYPE svg PUBLIC "-//W3C//DTD SVG 1.1//EN" "http://www.w3.org/Graphics/SVG/1.1/DTD/svg11.dtd">
<svg version="1.1" id="Layer_1" xmlns="http://www.w3.org/2000/svg" xmlns:xlink="http://www.w3.org/1999/xlink" x="0px" y="0px"
	 width="366px" height="62px" viewBox="-0.019 0 366 62" enable-background="new -0.019 0 366 62" xml:space="preserve">
<g>
	<path fill="#121234" d="M365.961,42.012V20.041h-1.967v19.412l-19.092-19.412h-2.207v21.971h1.998V22.664l19.092,19.348H365.961z
		 M332.2,34.385h-12.967l6.492-12.408L332.2,34.385z M338.387,42.012l-11.496-21.971h-2.35l-11.498,21.971h2.193l3.02-5.807h14.92
		l3.021,5.807H338.387z M308.676,42.012V20.041h-2.127l-12.744,19.908L280.92,20.041h-2.143v21.971h1.998V23.24l12.088,18.771h1.773
		l12.074-18.693v18.693H308.676z M271.584,35.104V20.041h-1.998v15.223c0,0.736-0.195,1.43-0.584,2.088
		c-0.387,0.654-0.965,1.227-1.732,1.717c-0.77,0.49-1.719,0.881-2.846,1.166c-1.131,0.289-2.438,0.434-3.92,0.434
		c-1.492,0-2.803-0.145-3.934-0.434c-1.127-0.285-2.076-0.676-2.846-1.166c-0.768-0.49-1.346-1.063-1.732-1.717
		c-0.389-0.658-0.586-1.352-0.586-2.088V20.041h-1.998v15.063c0,1.1,0.232,2.098,0.697,2.998c0.463,0.902,1.158,1.674,2.088,2.316
		c0.924,0.646,2.08,1.146,3.467,1.496c1.387,0.352,3,0.527,4.844,0.527c1.846,0,3.459-0.176,4.844-0.527
		c1.389-0.35,2.543-0.85,3.465-1.496c0.922-0.643,1.613-1.414,2.076-2.316C271.354,37.201,271.584,36.203,271.584,35.104
		 M242.204,42.012V20.041h-1.998v9.467h-19.682v-9.467h-1.998v21.971h1.998V31.33h19.682v10.682H242.204z M198.815,42.012V20.041
		h-2.127l-12.742,19.908l-12.887-19.908h-2.144v21.971h2V23.24l12.087,18.771h1.776l12.072-18.693v18.693H198.815z M161.517,20.041
		h-2V42.01h2V20.041z M155.2,21.865v-1.824h-21.969v1.824h9.992v20.146h1.984V21.865H155.2z M128.453,29.012
		c-0.271,0.588-0.635,1.061-1.089,1.424c-0.452,0.361-0.976,0.631-1.568,0.809c-0.592,0.174-1.213,0.297-1.864,0.367
		c-0.651,0.068-1.31,0.1-1.977,0.096c-0.665-0.008-1.294-0.01-1.879-0.01h-8.595v-9.783h8.595c1.514,0,2.824,0.059,3.929,0.176
		c1.104,0.115,2.016,0.348,2.736,0.693c0.719,0.348,1.253,0.84,1.6,1.48c0.348,0.641,0.521,1.48,0.521,2.525
		C128.862,27.686,128.726,28.426,128.453,29.012 M130.372,23.879c-0.356-0.84-0.92-1.545-1.686-2.111
		c-0.769-0.564-1.756-0.992-2.967-1.287c-1.209-0.291-2.667-0.439-4.373-0.439h-11.863v21.971h1.998V33.57h9.865
		c1.706,0,3.164-0.148,4.373-0.441c1.211-0.293,2.198-0.729,2.967-1.303c0.766-0.576,1.329-1.285,1.686-2.127
		c0.357-0.842,0.536-1.811,0.536-2.91C130.908,25.691,130.729,24.721,130.372,23.879 M100.806,35.168
		c-0.508,1.193-1.258,2.199-2.248,3.014c-0.992,0.814-2.229,1.434-3.705,1.854c-1.477,0.424-3.191,0.633-5.143,0.633
		c-1.953,0-3.674-0.209-5.16-0.633c-1.488-0.42-2.734-1.039-3.736-1.854c-1.004-0.814-1.76-1.82-2.273-3.014
		c-0.511-1.193-0.768-2.57-0.768-4.125c0-1.535,0.257-2.902,0.768-4.102c0.514-1.199,1.27-2.207,2.273-3.023
		c1.002-0.814,2.248-1.436,3.736-1.861c1.486-0.426,3.207-0.639,5.16-0.639c1.951,0,3.666,0.211,5.143,0.629
		c1.477,0.424,2.713,1.041,3.705,1.855c0.99,0.816,1.74,1.82,2.248,3.016c0.506,1.193,0.759,2.568,0.759,4.125
		C101.564,32.598,101.312,33.975,100.806,35.168 M102.54,25.934c-0.713-1.434-1.693-2.615-2.941-3.549
		c-1.244-0.934-2.715-1.623-4.408-2.07c-1.694-0.447-3.521-0.672-5.48-0.672c-1.311,0-2.563,0.098-3.756,0.295
		c-1.193,0.197-2.31,0.502-3.349,0.912c-1.038,0.41-1.98,0.924-2.827,1.543c-0.848,0.617-1.569,1.35-2.166,2.199
		c-0.598,0.846-1.06,1.807-1.391,2.875c-0.33,1.074-0.495,2.264-0.495,3.576c0,1.971,0.357,3.676,1.069,5.107
		c0.715,1.434,1.7,2.617,2.957,3.551c1.258,0.932,2.738,1.621,4.442,2.068c1.705,0.447,3.542,0.672,5.515,0.672
		c1.959,0,3.786-0.225,5.48-0.672c1.693-0.447,3.164-1.137,4.408-2.068c1.248-0.934,2.229-2.117,2.941-3.551
		c0.715-1.432,1.07-3.137,1.07-5.107C103.61,29.07,103.255,27.367,102.54,25.934"/>
	<path fill="#121234" d="M47.621,9.109l3-5.15L52.921,0H0.78l5.291,9.109l4.709,8.051h-0.039l0.01,0.01H0.001L26.062,62l8.6-14.781
		l1.3-2.23l4.55,7.861l0.01,0.02l0.621,1.07l26.08-44.83H47.621z M39.271,48.539l-0.89-1.529l-1.18-2.021l-0.62-1.068l-0.62-1.08
		l-0.62,1.059l-0.64,1.09l-0.761,1.301L26.062,59.85L1.881,18.25l9.49-0.012h1.271l-0.631-1.078l-0.63-1.08l-0.81-1.391l-2.62-4.51
		l-0.62-1.07L4.86,4.85L3.142,1.879L2.671,1.08H51.03l-4.659,8.029l-0.62,1.07h19.58L41.142,51.77L39.271,48.539z"/>
	<path fill="#121234" d="M19.791,17.16l0.63,1.078l0.01,0.012l10.311,17.738l0.63,1.08l0.61-1.059l0.02-0.021l10.32-17.738v-0.012
		l0.63-1.078H19.791z M41.062,18.25L34.812,29l-2.67,4.58l-0.771,1.33l-0.011,0.02l-9.539-16.4l-0.17-0.279l-0.01-0.012h19.42V18.25
		z"/>
	<g>
		<polygon fill="#BA9368" points="45.751,10.18 42.321,16.08 41.69,17.16 42.951,17.16 43.581,16.08 47.011,10.18 		"/>
		<polygon fill="#BA9368" points="46.36,9.109 16.36,9.109 15.11,9.109 15.741,10.18 19.171,16.08 19.791,17.16 21.041,17.16 
			20.421,16.08 16.991,10.18 45.741,10.18 45.751,10.18 46.371,9.109 		"/>
	</g>
	<polygon fill="#8D5A8B" points="50.881,17.16 44.19,17.16 42.951,17.16 42.321,18.238 43.571,18.238 50.251,18.25 36.521,41.859 
		35.972,42.818 32.621,37.059 32.001,35.988 31.981,36.01 31.371,37.068 31.991,38.139 35.341,43.898 35.961,42.84 36.581,43.92 
		36.591,43.898 51.521,18.238 52.151,17.16 	"/>
	<polygon fill="#467780" points="30.741,35.988 30.101,37.09 26.86,42.68 26.851,42.66 12.661,18.25 12.651,18.25 12.651,18.238 
		20.421,18.238 19.791,17.16 12.376,17.16 12.021,17.16 12.011,17.16 12.642,18.238 11.401,18.238 11.411,18.25 26.231,43.75 
		26.86,44.818 27.481,43.75 30.731,38.17 31.371,37.068 	"/>
</g>
</svg>
